<?xml version="1.0" encoding="utf-8"?>
<!-- Generator: Adobe Illustrator 26.4.1, SVG Export Plug-In . SVG Version: 6.00 Build 0)  -->
<svg version="1.1" id="Слой_1" xmlns="http://www.w3.org/2000/svg" xmlns:xlink="http://www.w3.org/1999/xlink" x="0px" y="0px"
	 viewBox="0 0 922 75" style="enable-background:new 0 0 922 75;" xml:space="preserve">
<style type="text/css">
	.st0{opacity:0.9;}
	.st1{opacity:0.6;fill:none;stroke:#000000;stroke-width:3;enable-background:new    ;}
	.st2{opacity:0.9;enable-background:new    ;}
	.st3{opacity:0.6;enable-background:new    ;}
</style>
<path d="M15.2,13.6c8.5,0,15.7,6,15.7,19.6v0.1c0,12.8-5.9,20.5-15.8,20.5c-7.2,0-12.5-4.1-13.8-10l-0.1-0.3h6.9l0.1,0.2
	c1,2.7,3.4,4.4,6.9,4.4c6.2,0,8.8-6,9.1-13.3c0-0.4,0.1-0.8,0.1-1.2h-0.2c-1.5,3.5-5.4,6.2-10.6,6.2C6,39.7,0.7,34.3,0.7,27.1V27
	C0.7,19.2,6.9,13.6,15.2,13.6z M15.2,34.4c4.4,0,7.8-3.1,7.8-7.4v0c0-4.3-3.4-7.7-7.7-7.7c-4.3,0-7.8,3.3-7.8,7.5v0.1
	C7.6,31.2,10.8,34.4,15.2,34.4z M39.5,27.6c-2.2,0-3.9-1.7-3.9-3.9s1.7-3.9,3.9-3.9s3.9,1.7,3.9,3.9S41.7,27.6,39.5,27.6z
	 M39.5,47.4c-2.2,0-3.9-1.7-3.9-3.9s1.7-3.9,3.9-3.9s3.9,1.7,3.9,3.9S41.7,47.4,39.5,47.4z M67.2,53v-7.4H47.9v-5.9L64,14.2h9.9
	v25.6h5.3v5.7h-5.3V53H67.2z M54.1,40h13.2V19.5h-0.2L54.1,39.8V40z M93.1,53V20.9H93l-10,6.9v-6.4l10.1-7.1h6.8V53H93.1z"/>
<g class="st0">
	<path d="M687,34h8c0.6,0,1,0.4,1,1v10c0,0.6-0.4,1-1,1h-8c-0.6,0-1-0.4-1-1V35C686,34.4,686.4,34,687,34z"/>
	<path d="M701,28h8c0.6,0,1,0.4,1,1v16c0,0.6-0.4,1-1,1h-8c-0.6,0-1-0.4-1-1V29C700,28.4,700.4,28,701,28z"/>
	<path d="M716,21h8c0.6,0,1,0.4,1,1v23c0,0.6-0.4,1-1,1h-8c-0.6,0-1-0.4-1-1V22C715,21.4,715.4,21,716,21z"/>
	<path d="M730,13h8c0.6,0,1,0.4,1,1v31c0,0.6-0.4,1-1,1h-8c-0.6,0-1-0.4-1-1V14C729,13.4,729.4,13,730,13z"/>
</g>
<g class="st0">
	<path d="M818.1,21.6c-6.5-6.6-15.6-10.6-25.5-10.6c-10,0-19.1,4.1-25.6,10.7l5.7,5.7c5.1-5.2,12.1-8.3,19.9-8.3
		c7.8,0,14.8,3.2,19.9,8.3L818.1,21.6z"/>
	<path d="M809,30.8c-4.2-4.2-10-6.8-16.4-6.8c-6.4,0-12.2,2.6-16.4,6.9l5.7,5.7c2.7-2.8,6.5-4.5,10.8-4.5c4.2,0,8,1.7,10.7,4.5
		L809,30.8z"/>
	<path d="M799.8,40c-1.8-1.9-4.4-3-7.2-3c-2.8,0-5.4,1.2-7.2,3.1l7.2,7.2L799.8,40z"/>
</g>
<path class="st1" d="M854,13.5h54c3.6,0,6.5,2.9,6.5,6.5v19c0,3.6-2.9,6.5-6.5,6.5h-54c-3.6,0-6.5-2.9-6.5-6.5V20
	C847.5,16.4,850.4,13.5,854,13.5z"/>
<path class="st2" d="M855,17h52c2.2,0,4,1.8,4,4v17c0,2.2-1.8,4-4,4h-52c-2.2,0-4-1.8-4-4V21C851,18.8,852.8,17,855,17z"/>
<path class="st3" d="M918,25L918,25c2.2,0,4,1.8,4,4v1c0,2.2-1.8,4-4,4l0,0V25z"/>
<path class="st3" d="M716.5,68h156c1.9,0,3.5,1.6,3.5,3.5l0,0c0,1.9-1.6,3.5-3.5,3.5h-156c-1.9,0-3.5-1.6-3.5-3.5l0,0
	C713,69.6,714.6,68,716.5,68z"/>
<image style="overflow:visible;" width="370" height="108" xlink:href="/sitemaker/images/camera.png"  transform="matrix(0.6759 0 0 0.6759 308.4254 0.7708)">
</image>
</svg>
